<?xml version="1.0" standalone="no"?><!DOCTYPE svg PUBLIC "-//W3C//DTD SVG 1.1//EN" "http://www.w3.org/Graphics/SVG/1.1/DTD/svg11.dtd"><svg t="1713351595815" class="icon" viewBox="0 0 1024 1024" version="1.1" xmlns="http://www.w3.org/2000/svg" p-id="1635" xmlns:xlink="http://www.w3.org/1999/xlink" width="200" height="200"><path d="M511.6 578c-53.9 0-231.8-5-259.5-69.3-9.3-21.7-1-47.2 24.9-75.9-11.8-19.3-20.4-50-22.8-81.8-2.1-29.3-0.2-73.2 21.2-116.2C291.5 202.3 316 176.3 348 157.5c36.8-21.6 83.5-33.5 138.9-35.3 5-0.2 10-0.3 14.9-0.3 90.5 0 161.7 28.2 205.8 81.6 43.8 53 58.4 127.7 42.3 216.3 16.8 12.5 30.2 37.7 23.7 63.4-4.2 16.4-18.3 40.1-61.9 59.6-41.9 18.7-103.5 30.4-183.2 34.9h-0.1c-2.3 0.2-8 0.3-16.8 0.3z" fill="#FF9640" p-id="1636"></path><path d="M501.9 128.2c180.4 0 275.8 114 241.3 294.5 38.3 23.5 76.5 132.7-214.8 148.8-3.7 0.1-9.5 0.2-16.8 0.2-79.6 0-346-12-226.7-138.3-41.9-59.3-62.6-296.2 202.2-305 5.1-0.1 10-0.2 14.8-0.2m0.1-12.4v12.4V115.8c-5 0-10.1 0.1-15.2 0.3C430.4 118 382.7 130.2 345 152.3c-33.1 19.4-58.3 46.3-75 79.9-22 44.3-24 89.4-21.8 119.4 2.3 31.1 10.1 60.4 21.3 80.6-25.3 29.3-33 55.9-23 79.1 7.1 16.6 23.4 30.5 48.2 41.4 19.4 8.5 44.5 15.5 74.8 20.6 57.6 9.9 118.6 11 142.2 11 8.9 0 14.6-0.1 17.2-0.2h0.3c80.4-4.5 142.7-16.4 185.3-35.4 18.8-8.4 34-18.3 45-29.4 10.4-10.4 17.2-22 20.3-34.3 3.7-14.6 2-29.9-4.8-44.1-4.4-9-10.8-17.2-18.1-23.4 15.4-88.9 0.1-164-44.3-217.7-45.4-55-118.2-84-210.6-84z" fill="" p-id="1637"></path><path d="M528.4 571.6c233.8-12.9 255.3-85.8 234.9-126.3-41.2 43.8-109.3 84.5-221.7 90.9-154.5 8.7-229.2-33.3-272.6-83.3C186.5 571.6 486.5 573 528.4 571.6zM479.1 266.7c-43.3 0-75-10.6-94.3-31.4-14.9-16.1-16.3-32.5-16.3-33.2-0.1-1.7 0.5-3.4 1.6-4.7 1.2-1.3 2.8-2 4.5-2h223.7c2 0 3.8 1 5 2.6s1.5 3.7 0.9 5.6c-0.2 0.7-5.5 16.6-24 32.2-16.5 14-47.5 30.9-101.1 30.9z" fill="#FFFFFF" p-id="1638"></path><path d="M598.3 201.6s-19.1 58.9-119.2 58.9-104.5-58.9-104.5-58.9h223.7m0-12.4H374.6c-3.4 0-6.7 1.4-9.1 4-2.3 2.5-3.5 5.9-3.3 9.4 0.1 1.9 1.9 19.5 18 36.9 9.2 10 21.3 17.8 35.9 23.4 17.4 6.6 38.6 10 63 10 24.2 0 46.1-3.3 64.9-9.9 15.5-5.4 29-13 40.2-22.5 19.4-16.5 25.2-33.2 25.8-35 1.2-3.8 0.6-7.9-1.8-11.1-2.2-3.3-5.9-5.2-9.9-5.2z" fill="" p-id="1639"></path><path d="M374.6 203.7c-2.1 0-3.9-1.4-4.5-3.4-0.6-2.1 0.3-4.2 2.1-5.3 7.7-4.4 11.9-11.7 12.2-20.8 0.7-20.3-16.3-45.2-43.4-63.6-1.4-0.9-2.1-2.5-2-4.2s1.1-3.1 2.6-3.8c2.2-1.1 54.6-26.1 122.5-28.8 5.2-0.2 10.6-0.3 16.1-0.3 29.3 0 62.5 2.9 91.1 8 46 8.2 48.6 16 49.5 18.6 0.5 1.4 0.2 3-0.6 4.2-0.9 1.2-2.3 1.9-3.8 1.9-9 0-15.3 2.9-19.5 8.8-13.4 19.2-0.5 66 5.6 82.4 0.5 1.4 0.3 3-0.6 4.3-0.9 1.2-2.3 2-3.8 2-0.8 0-83.1-0.7-148.6-0.7-38.4 0-63.6 0.2-74.8 0.7h-0.1z" fill="#FFC239" p-id="1640"></path><path d="M480.3 78.1c62.5 0 132.8 13.4 136.2 23.4-54.4 0-18.2 97.5-18.2 97.5s-82.4-0.7-148.7-0.7c-33.1 0-62.2 0.2-75 0.7 28-16.2 14.7-61.4-30.9-92.3 0 0 53-25.6 120.7-28.3 5.2-0.2 10.6-0.3 15.9-0.3m0-9.3c-5.6 0-11.1 0.1-16.3 0.3-68.8 2.8-122.1 28.2-124.3 29.3-3 1.4-5 4.4-5.2 7.7-0.2 3.3 1.3 6.5 4.1 8.4 21.1 14.3 42.1 38.3 41.4 59.6-0.3 7.6-3.6 13.3-9.9 17-3.7 2.1-5.5 6.5-4.3 10.6 1.2 4 4.8 6.7 8.9 6.7h0.4c11.2-0.4 36.3-0.6 74.6-0.6 65.5 0 147.8 0.6 148.6 0.7h0.1c3 0 5.9-1.5 7.6-4 1.8-2.5 2.2-5.7 1.1-8.6-0.1-0.1-5.5-15-8.8-32.6-4-21.3-3-37.5 2.6-45.6 2-2.9 5.9-6.8 15.7-6.8 3 0 5.8-1.4 7.5-3.9 1.7-2.4 2.2-5.5 1.3-8.4-1.9-5.8-7.7-9.7-19.8-13.8-8.4-2.8-19.9-5.5-33.3-7.9-28.9-5.1-62.4-8.1-92-8.1z" fill="" p-id="1641"></path><path d="M502.6 518.9c-31.7 0-58.9-12.9-72.3-20.6-12.8-7.4-32-21.3-32-29.3 0-1.8 0.8-3.4 2.1-4.5 1.1-0.8 2.4-1.3 4-1.3 0.7 0 1.4 0.1 2.3 0.3 16.1 3.5 27.2 5.8 35.7 5.8 9.5 0 15.7-2.8 24.7-11 11-10.2 24.2-21 40.9-21 13.4 0 27.1 6.8 41.8 20.9 2.7 2.1 9 4.3 18.5 4.3 7.5 0 19.8-1.4 35.4-8.3 0.6-0.3 1.2-0.4 1.9-0.4 1.1 0 2.3 0.4 3.1 1.2 2.1 1.9 5.1 6.1 2.6 13-3.5 9.6-17.3 21.8-36.1 31.8-21.2 11.2-45.1 18-67.2 19-1.8 0-3.6 0.1-5.4 0.1z" fill="#FFFDFD" p-id="1642"></path><path d="M507.9 441.8c11 0 23.7 5.3 38.8 19.8 3.7 3 11.2 5.4 21.6 5.4 10.1 0 22.8-2.3 37.3-8.7 13.2 12.1-40.7 53.1-97.8 55.8-1.7 0.1-3.5 0.1-5.2 0.1-59.3 0-108.8-46.4-98.2-46.4 0.4 0 0.8 0.1 1.3 0.2 16.6 3.6 27.8 5.9 36.7 5.9 11 0 18.3-3.5 27.8-12.2 10.9-10.2 22.9-19.9 37.7-19.9m0-9.3c-18.4 0-32.4 11.5-44.1 22.2-8 7.4-13.2 9.8-21.5 9.8-8 0-18.9-2.3-34.7-5.7-1.2-0.3-2.2-0.4-3.3-0.4-3.2 0-5.5 1.2-6.8 2.3-2.5 2-3.9 4.9-3.9 8.1 0 3.5 1.3 8.3 11.1 17 6.2 5.5 14.4 11.3 23.2 16.4 16.9 9.7 43.5 21.3 74.6 21.3 1.9 0 3.8 0 5.6-0.1 22.8-1.1 47.4-8 69.2-19.6 20.1-10.7 34.4-23.5 38.3-34.3 2.5-7 1.1-13.5-3.8-18.1-1.7-1.6-4-2.4-6.3-2.4-1.3 0-2.5 0.3-3.7 0.8-14.9 6.5-26.5 7.9-33.6 7.9-8.7 0-13.8-2-15.5-3.2-15.5-14.8-30.2-22-44.8-22z" fill="" p-id="1643"></path><path d="M456.7 851.9c4.1 10 9.7 27.6 4.4 38.7-2.3 4.8-6.3 7.9-11.6 9.1-15.6 3.6-24 6.2-28.5 8.1 9 2.1 20.1-0.3 24.1-1.7 2.7-0.9 5.6 0.1 7.1 2.5s1.3 5.5-0.6 7.5c-2.5 2.8-5 6.2-6.5 8.7 5.8-1.2 15.7-5.6 23.4-10.1 1.9-1.1 4.2-1.1 6.1-0.1 10.2 5.5 21.1 10.1 27.6 11.8-3-3.4-7.7-7.9-11-10.9-8.9-8.3-17.3-16.2-19.1-23.5-2.3-10 1.3-26.9 3.4-35.3-6.5-1.1-12.7-2.8-18.8-4.8zM579.4 891c-0.7-17.6 1.4-37.6 2.5-46.5-4.6 2.2-9.2 4.1-14.1 5.8 3.5 53.3 0.2 55.2-3.2 57.1 0 0-0.1 0-0.1 0.1-0.7 0.4-1.7 0.8-3.8 1.6-16.3 6.6-21.1 10.3-22.5 12.1 0.1 0.1 0.3 0.2 0.5 0.3 11 7.1 26.8-9 26.9-9.2 1.3-1.3 3-2 4.9-1.9 1.8 0.1 3.5 1 4.6 2.5 6 7.9 13 16.8 17.7 22.4 1.3-4.6 2.7-10.7 3.8-16.2 0.6-2.9 3.1-5 6.1-5h0.2c4.7 0.1 9.4 0 13.8-0.4-16.9-1.8-36.6-5.9-37.3-22.7z" fill="#FF9640" p-id="1644"></path><path d="M625.1 902.1c-12.3-1.1-33-3-33.3-11.6-0.9-21.8 2.9-48.7 2.9-49 0.2-1.3 0-2.5-0.6-3.6 21.1-12.7 37.8-30.7 48.1-52.1 18.6-38.4 14.6-82.4-10-112-21.7-26.1-43.7-32-61.4-36.7-23.1-6.1-37-9.8-38.7-57.6-0.1-3.3-2.9-6-6.2-6h-53.5c-2.3 0-4.4 1.2-5.5 3.2-1.1 2-1 4.4 0.3 6.3 0.2 0.4 6 9.7 2.1 23.2-3.9 13.6-16.4 26.8-36.3 38.8-0.1 0-0.1 0-0.2 0.1-80.5 30.5-128 53-132.6 78.1-1.8 9.7 2.6 19.2 13.6 29 15.5 13.8 28.8 16.9 37.5 16.9 6.3 0 10.2-1.6 10.5-1.8 1.4-0.6 2.4-1.9 2.7-3.4s-0.2-3-1.2-4.1c-13-13.3-18.1-24.1-17.3-26 0 0 0.5-0.4 2.3-0.6 10-0.7 15.9-2.8 20-5.1-0.5 9.6 0.2 19.5 2.3 29.5 5.6 26.8 20.4 51.4 41.6 69.5 9 7.7 19.1 14.1 30 19.1-0.4 1.4-0.3 3 0.4 4.4 5 10.3 10.6 27.9 7.4 34.7-0.6 1.3-1.6 2-3.2 2.4-31.2 7.1-41.5 12-42.4 19.8-0.3 2.4 0.3 6.9 7.2 10.2 7 3.3 15 3.7 21.8 3.2-2.2 4.7-2.1 8-1.4 10.3 1.1 3.2 3.8 5.5 7.4 6.2 2.6 0.5 12.3 1.2 32.5-10 10.4 5.4 25.5 12.3 35 12.3 1.7 0 3.3-0.2 4.6-0.7 2.6-1 4.5-2.9 5.3-5.5 2.8-8.2-6-16.4-17.1-26.8-5.8-5.4-14.6-13.6-15.5-17.3-1.5-6.5 1.1-21 3.6-30.6 5 0.6 10 0.9 15.2 1 1.8 0 3.5 0.1 5.2 0.1 16.9 0 32.6-1.9 47.3-5.8 1.1 17.6 1.6 36.9 0.9 43.4-0.2 0.1-0.4 0.1-0.5 0.2-17.7 7.1-29.7 13.7-30.6 22.8-0.2 2.5 0.3 7.4 6.5 11.5 14.1 9.1 29.4 0.1 37.3-6.2 20.1 26.4 22.6 26.4 25.6 26.4 5.9 0 7.9-5.6 10.9-17.5 0.7-2.9 1.4-5.7 1.9-8.1 12-0.1 31.5-1.5 37.2-10.1 1.6-2.4 1.9-5.2 0.7-7.6-2.4-5.1-8.7-5.7-20.3-6.8z m-22.4 12h-0.2c-2.9 0-5.5 2.1-6.1 5-1.1 5.4-2.5 11.6-3.8 16.2-4.7-5.6-11.7-14.4-17.7-22.4-1.1-1.5-2.8-2.4-4.6-2.5-1.8-0.1-3.6 0.6-4.9 1.9-0.2 0.2-16 16.3-26.9 9.2-0.2-0.1-0.3-0.2-0.5-0.3 1.4-1.8 6.2-5.5 22.5-12.1 2.1-0.9 3.1-1.2 3.8-1.6 0 0 0.1 0 0.1-0.1 3.5-1.9 6.8-3.8 3.2-57.1 4.8-1.7 9.5-3.6 14.1-5.8-1.1 8.9-3.2 29-2.5 46.5 0.7 16.8 20.4 20.9 37 22.7-4.1 0.4-8.9 0.5-13.5 0.4zM368.1 716.8c-4 3.2-7.7 6.2-20.7 7.2-6.6 0.5-9.2 3.8-10.2 6.5-2 5.4 0.7 12.8 8.6 23.2 1.7 2.2 3.4 4.3 5 6.2-6.7-0.1-17.5-2.7-30.7-14.6-8.3-7.4-11.8-14.1-10.6-20.3 3.1-16.9 39.4-35.8 85.1-54.7-10.3 9.2-17 20.2-22.2 43.4-1.7 1-3 2-4.3 3.1z m104.1 175.3c1.8 7.4 10.2 15.2 19.1 23.5 3.3 3.1 8 7.5 11 10.9-6.5-1.7-17.4-6.4-27.6-11.8-1.9-1-4.2-1-6.1 0.1-7.7 4.5-17.7 8.9-23.4 10.1 1.5-2.5 3.9-5.9 6.5-8.7 1.9-2.1 2.1-5.2 0.6-7.5-1.5-2.4-4.5-3.4-7.1-2.5-4 1.3-15.1 3.8-24.1 1.7 4.5-1.8 12.9-4.5 28.5-8.1 5.3-1.2 9.3-4.4 11.6-9.1 5.3-11.1-0.3-28.7-4.4-38.7 6.1 2 12.4 3.6 18.9 4.9-2.3 8.4-5.8 25.3-3.5 35.2z m31.1-44.8c-32.6-0.8-61.3-11-83.2-29.6-19.1-16.3-32.4-38.5-37.5-62.6-8.3-39.5 6.4-74.5 37.6-89.1 34.7-16.3 55.2-35.3 61.2-56.6 2.7-9.5 1.8-17.6 0.3-23.4h38.4c3.2 51.4 23.8 56.8 47.6 63.2 16.8 4.5 35.8 9.5 55 32.6 21.5 25.9 24.8 64.6 8.3 98.7-9.6 19.9-25.2 36.4-45.2 48-22.8 13.2-50.6 19.6-82.5 18.8z" fill="" p-id="1645"></path><path d="M631.1 780.4c16.5-34.1 13.2-72.8-8.3-98.7-19.2-23.1-38.2-28.1-55-32.6-23.7-6.3-44.4-11.8-47.6-63.2h-38.4c1.6 5.8 2.4 13.9-0.3 23.4-6 21.3-26.6 40.3-61.2 56.6-31.2 14.6-45.9 49.6-37.6 89.1 5.1 24.1 18.4 46.3 37.5 62.6 21.9 18.6 50.7 28.9 83.2 29.6 31.8 0.8 59.6-5.6 82.6-18.9 19.9-11.4 35.5-28 45.1-47.9z" fill="#FFFFFF" p-id="1646"></path><path d="M394.5 670.3c-45.7 18.8-82 37.8-85.1 54.7-1.2 6.3 2.3 12.9 10.6 20.3 13.3 11.8 24.1 14.4 30.7 14.6-1.6-1.8-3.3-3.9-5-6.2-7.9-10.5-10.6-17.8-8.6-23.2 1-2.7 3.6-6 10.2-6.5 13-1 16.7-4 20.7-7.2 1.3-1 2.6-2.1 4.2-3.1 5.2-23.2 11.9-34.2 22.3-43.4zM713.6 722.5c-4.6-20.9-46.5-41.1-90.5-56.9 11 10.5 21.8 25.8 27.4 47.5 1 0.6 1.9 1.3 2.7 2 3.7 3 10 8 22.3 8.9 6.7 0.5 9 4.2 9.8 6.3 2.1 5.6-1 13.6-9.8 25.2-1.7 2.3-3.5 4.5-5.2 6.4 7.7-1.1 19.5-4.8 32.6-16.6 8.9-7.8 12.4-15.3 10.7-22.8z" fill="#FF9640" p-id="1647"></path><path d="M722.7 720.5c-5.5-25.1-48.6-49.8-131.9-75.3-2.4-0.7-5 0.6-5.8 3-0.8 2.4 0.6 5 3 5.8 0.4 0.1 42.6 14.5 54 63.7 0.3 1.4 1.3 2.6 2.5 3.2 0.5 0.2 1 0.4 1.5 0.4 0.4 0.3 0.8 0.7 1.3 1 4.3 3.4 12.3 9.8 27.4 10.9 1.1 0.1 1.7 0.3 1.9 0.4 0.1 0.6 0.2 4.7-8.5 16.2-5.5 7.2-11.4 13.4-11.5 13.4-1.2 1.2-1.6 3-1.1 4.6 0.5 1.6 1.8 2.8 3.5 3.2 0.3 0.1 2.4 0.5 6 0.5 8.6 0 25.5-2.6 44.2-19.3 11.4-10.1 15.9-20.7 13.5-31.7zM703 745.3c-13.1 11.7-24.9 15.5-32.6 16.6 1.6-1.9 3.4-4.1 5.2-6.4 8.8-11.6 12-19.6 9.8-25.2-0.8-2.1-3.2-5.8-9.8-6.3-12.3-0.9-18.6-5.9-22.3-8.9-0.9-0.7-1.8-1.4-2.7-2-5.6-21.7-16.4-37-27.4-47.5 44.1 15.8 86 36 90.5 56.9 1.6 7.5-1.9 15-10.7 22.8z" fill="" p-id="1648"></path><path d="M390.6 358.4m-64.1 0a64.1 64.1 0 1 0 128.2 0 64.1 64.1 0 1 0-128.2 0Z" fill="#FFFDFD" p-id="1649"></path><path d="M390.6 358.4m-39.8 0a39.8 39.8 0 1 0 79.6 0 39.8 39.8 0 1 0-79.6 0Z" fill="" p-id="1650"></path><path d="M402.9 364.6m-14.6 0a14.6 14.6 0 1 0 29.2 0 14.6 14.6 0 1 0-29.2 0Z" fill="#FFFDFD" p-id="1651"></path><path d="M627.4 358.4m-64.1 0a64.1 64.1 0 1 0 128.2 0 64.1 64.1 0 1 0-128.2 0Z" fill="#FFFDFD" p-id="1652"></path><path d="M627.4 358.4m-39.8 0a39.8 39.8 0 1 0 79.6 0 39.8 39.8 0 1 0-79.6 0Z" fill="" p-id="1653"></path><path d="M616.5 364.6m-14.6 0a14.6 14.6 0 1 0 29.2 0 14.6 14.6 0 1 0-29.2 0Z" fill="#FFFDFD" p-id="1654"></path><path d="M489.5 109l5.9 18.2c0.4 1.3 1.7 2.2 3.1 2.2h19.2c3.1 0 4.4 4 1.9 5.8l-15.5 11.3c-1.1 0.8-1.6 2.3-1.2 3.6l5.9 18.2c1 3-2.4 5.4-5 3.6l-15.5-11.3c-1.1-0.8-2.7-0.8-3.8 0L469.1 172c-2.5 1.8-5.9-0.6-5-3.6l5.9-18.2c0.4-1.3 0-2.8-1.2-3.6l-15.5-11.3c-2.5-1.8-1.2-5.8 1.9-5.8h19.2c1.4 0 2.6-0.9 3.1-2.2l5.9-18.2c1-3.1 5.2-3.1 6.1-0.1z" fill="" p-id="1655"></path><path d="M485.5 484.2c-1.2 0-2.5-0.4-3.6-1.1l-6-4.2c-2.8-2-3.5-5.8-1.5-8.6s5.8-3.5 8.6-1.5l6 4.2c2.8 2 3.5 5.8 1.5 8.6-1.1 1.7-3.1 2.6-5 2.6z" fill="" p-id="1656"></path><path d="M527.7 484.2c-1.8 0-3.6-0.8-4.8-2.3-2.2-2.7-1.7-6.6 0.9-8.7l5.2-4.2c2.7-2.2 6.6-1.7 8.7 0.9 2.2 2.7 1.7 6.6-0.9 8.7l-5.2 4.2c-1.2 0.9-2.5 1.4-3.9 1.4z" fill="" p-id="1657"></path><path d="M505.2 692.5m-36.4 0a36.4 36.4 0 1 0 72.8 0 36.4 36.4 0 1 0-72.8 0Z" fill="" p-id="1658"></path><path d="M505.2 713.4c-11.5 0-20.9-9.4-20.9-20.9s9.4-20.9 20.9-20.9 20.9 9.4 20.9 20.9c0 11.6-9.3 20.9-20.9 20.9z" fill="#FFC239" p-id="1659"></path><path d="M460.9 627.1l32.5 45.5-12 10.4-29.6-43.9zM549.8 632.5l-28.2 42.4 8.9 10.8 31.2-44.7z" fill="" p-id="1660"></path></svg>